<svg xmlns="http://www.w3.org/2000/svg" xmlns:xlink="http://www.w3.org/1999/xlink" width="500" zoomAndPan="magnify" viewBox="0 0 375 374.999991" height="500" preserveAspectRatio="xMidYMid meet" version="1.0"><defs><clipPath id="66351ebdd8"><path d="M 131.25 131.25 L 243.75 131.25 L 243.75 243.75 L 131.25 243.75 Z M 131.25 131.25 " clip-rule="nonzero"/></clipPath><clipPath id="1c65778d29"><path d="M 187.5 131.25 C 156.433594 131.25 131.25 156.433594 131.25 187.5 C 131.25 218.566406 156.433594 243.75 187.5 243.75 C 218.566406 243.75 243.75 218.566406 243.75 187.5 C 243.75 156.433594 218.566406 131.25 187.5 131.25 Z M 187.5 131.25 " clip-rule="nonzero"/></clipPath><clipPath id="cbf331f777"><path d="M 38 91 L 338 91 L 338 287.789062 L 38 287.789062 Z M 38 91 " clip-rule="nonzero"/></clipPath><clipPath id="f91713cfd1"><path d="M 38 87.539062 L 338 87.539062 L 338 284 L 38 284 Z M 38 87.539062 " clip-rule="nonzero"/></clipPath></defs><g clip-path="url(#66351ebdd8)"><g clip-path="url(#1c65778d29)"><path fill="#88ccd8" d="M 131.25 131.25 L 243.75 131.25 L 243.75 243.75 L 131.25 243.75 Z M 131.25 131.25 " fill-opacity="1" fill-rule="nonzero"/></g></g><g clip-path="url(#cbf331f777)"><path fill="#e5d5b7" d="M 320.058594 211.5625 C 318.792969 211.246094 317.574219 211.015625 316.394531 210.851562 C 316.496094 210.675781 316.601562 210.492188 316.707031 210.328125 C 317.582031 208.78125 318.277344 207.160156 318.785156 205.457031 C 319.292969 203.753906 319.605469 202.015625 319.71875 200.242188 C 319.832031 198.46875 319.746094 196.703125 319.460938 194.949219 C 319.171875 193.195312 318.691406 191.496094 318.019531 189.851562 C 317.363281 188.21875 316.535156 186.683594 315.53125 185.242188 C 314.527344 183.800781 313.371094 182.492188 312.070312 181.3125 C 310.765625 180.132812 309.347656 179.117188 307.816406 178.265625 C 306.28125 177.410156 304.671875 176.742188 302.984375 176.257812 C 300.855469 175.632812 298.683594 175.324219 296.464844 175.320312 C 295.386719 175.320312 294.3125 175.398438 293.246094 175.550781 C 294.453125 171.316406 295.195312 167 295.472656 162.605469 C 295.546875 161.554688 295.605469 160.507812 295.640625 159.476562 C 295.890625 152.207031 295.179688 145.023438 294.53125 137.796875 C 293.675781 128.339844 293.917969 118.503906 290.191406 109.582031 C 287.367188 102.820312 279.917969 91.496094 261.703125 91.496094 C 259.886719 91.496094 258.253906 91.605469 256.8125 91.707031 C 255.851562 91.769531 254.945312 91.828125 254.328125 91.828125 L 253.992188 91.828125 C 246.007812 91.828125 239.265625 93.539062 233.859375 96.914062 C 232.371094 96.203125 230.839844 95.589844 229.273438 95.074219 C 223.335938 93.109375 215.984375 92.109375 207.414062 92.101562 L 206.953125 92.082031 C 206.035156 92.050781 204.644531 91.996094 203.007812 91.996094 C 199.570312 91.945312 196.171875 92.261719 192.804688 92.949219 C 186.414062 94.375 182.375 97.355469 179.808594 100.496094 C 175.3125 95.6875 168.222656 91.496094 157.136719 91.496094 C 155.324219 91.496094 153.691406 91.605469 152.25 91.707031 C 151.292969 91.769531 150.382812 91.828125 149.765625 91.828125 L 149.429688 91.828125 C 143.164062 91.828125 137.667969 92.898438 132.980469 94.972656 C 130.910156 94.265625 128.777344 93.910156 126.589844 93.90625 C 124.019531 93.90625 121.519531 93.992188 119.101562 94.082031 C 116.972656 94.160156 114.984375 94.230469 113.085938 94.238281 L 112.4375 94.152344 C 110.664062 93.871094 108.878906 93.71875 107.082031 93.703125 C 106.027344 93.707031 104.976562 93.769531 103.929688 93.886719 L 103.476562 93.855469 C 102.628906 93.789062 101.46875 93.703125 100.136719 93.703125 C 96.195312 93.703125 91.039062 94.058594 86.074219 96.792969 C 79.203125 100.59375 75.101562 107.75 75.101562 115.941406 C 75.101562 116.117188 75.101562 116.296875 75.101562 116.464844 C 75.074219 119.667969 75.007812 127.121094 80.980469 133.160156 C 82.863281 135.066406 85.042969 136.511719 87.527344 137.507812 C 87.527344 137.90625 87.492188 138.3125 87.472656 138.730469 C 87.40625 140.214844 87.328125 141.894531 87.328125 143.679688 C 87.328125 144.566406 87.359375 145.355469 87.382812 145.992188 C 87.382812 146.347656 87.414062 146.703125 87.414062 146.914062 C 87.414062 148.296875 87.390625 149.703125 87.375 151.183594 C 87.347656 152.757812 87.328125 154.386719 87.328125 156.058594 C 87.328125 156.972656 87.355469 157.777344 87.378906 158.492188 C 87.378906 158.796875 87.402344 159.085938 87.40625 159.332031 L 87.375 159.601562 C 87.1875 160.992188 87.085938 162.394531 87.074219 163.800781 C 87.074219 166.253906 87.226562 168.449219 87.386719 170.421875 C 87.386719 170.570312 87.371094 170.722656 87.363281 170.855469 C 87.230469 172.710938 87.195312 174.570312 87.261719 176.429688 C 86.746094 176.273438 86.199219 176.128906 85.667969 176.003906 C 83.816406 175.53125 81.9375 175.292969 80.027344 175.292969 C 77.808594 175.292969 75.632812 175.605469 73.503906 176.226562 C 71.816406 176.714844 70.207031 177.386719 68.671875 178.242188 C 67.140625 179.097656 65.722656 180.117188 64.417969 181.296875 C 63.117188 182.476562 61.964844 183.789062 60.960938 185.234375 C 59.957031 186.679688 59.128906 188.21875 58.476562 189.851562 C 57.800781 191.496094 57.320312 193.199219 57.035156 194.957031 C 56.746094 196.710938 56.660156 198.476562 56.777344 200.253906 C 56.890625 202.027344 57.203125 203.769531 57.714844 205.472656 C 58.226562 207.179688 58.921875 208.800781 59.800781 210.347656 C 59.898438 210.527344 60.011719 210.703125 60.113281 210.867188 C 58.9375 211.042969 57.714844 211.269531 56.449219 211.578125 C 45.0625 214.410156 37.503906 225.835938 39.238281 237.625 C 40.839844 248.507812 49.484375 256.488281 60.742188 257.515625 L 60.839844 257.515625 C 59.988281 260.019531 59.570312 262.59375 59.582031 265.242188 C 59.582031 274.910156 65.863281 283.453125 75.234375 286.488281 C 77.515625 287.226562 79.855469 287.597656 82.253906 287.59375 C 89.996094 287.59375 95.589844 283.792969 98.585938 281.75 L 99.089844 281.390625 C 100.753906 280.273438 102.332031 279.160156 103.859375 278.082031 C 104.570312 277.585938 105.28125 277.085938 105.988281 276.589844 C 109.25 274.320312 112.121094 272.320312 114.777344 270.441406 C 116.089844 271.925781 117.589844 273.191406 119.273438 274.234375 C 120.953125 275.28125 122.75 276.0625 124.664062 276.582031 C 126.757812 277.148438 128.886719 277.511719 131.050781 277.679688 C 134.320312 277.980469 137.929688 278.019531 140.710938 278.019531 L 143.453125 278.019531 C 146.304688 278 149.144531 277.808594 151.972656 277.449219 C 153.546875 277.246094 155.105469 276.949219 156.644531 276.558594 C 157.636719 276.75 158.636719 276.871094 159.648438 276.914062 L 160.054688 276.933594 L 160.460938 276.933594 C 161.261719 276.933594 162.429688 276.933594 163.792969 276.828125 L 164.148438 276.828125 C 166.054688 276.769531 169.601562 276.65625 173.28125 275.640625 C 174.324219 275.355469 175.347656 274.996094 176.347656 274.574219 C 177.011719 274.964844 177.695312 275.335938 178.394531 275.6875 C 184.378906 278.667969 191.617188 280.179688 199.902344 280.179688 C 201.238281 280.167969 202.566406 280.050781 203.882812 279.824219 C 211.078125 278.726562 217.074219 276.449219 221.828125 273.039062 C 223.773438 274.851562 225.984375 276.242188 228.457031 277.207031 C 230.933594 278.171875 233.5 278.640625 236.152344 278.621094 C 238.367188 278.59375 240.570312 278.421875 242.761719 278.113281 C 243.492188 278.027344 244.179688 277.9375 244.703125 277.894531 L 245.480469 277.828125 L 246.25 277.691406 C 247.597656 277.457031 248.90625 277.082031 250.175781 276.570312 C 251.441406 276.0625 252.644531 275.425781 253.78125 274.660156 C 254.917969 273.898438 255.964844 273.027344 256.917969 272.042969 C 257.871094 271.0625 258.714844 269.992188 259.445312 268.832031 C 262.730469 271.152344 266.308594 273.664062 270.53125 276.605469 L 272.660156 278.097656 C 274.1875 279.164062 275.765625 280.289062 277.433594 281.40625 L 277.933594 281.761719 C 280.941406 283.804688 286.53125 287.609375 294.261719 287.609375 C 296.660156 287.609375 299 287.242188 301.28125 286.503906 C 310.648438 283.472656 316.945312 274.933594 316.9375 265.257812 C 316.945312 262.613281 316.527344 260.039062 315.675781 257.535156 L 315.777344 257.535156 C 327.03125 256.527344 335.671875 248.527344 337.277344 237.644531 C 339.003906 225.835938 331.445312 214.410156 320.058594 211.5625 Z M 320.058594 211.5625 " fill-opacity="1" fill-rule="nonzero"/></g><g clip-path="url(#f91713cfd1)"><path fill="#fff8ee" d="M 320.058594 207.800781 C 318.792969 207.488281 317.574219 207.253906 316.394531 207.085938 C 316.496094 206.914062 316.601562 206.730469 316.707031 206.566406 C 317.585938 205.019531 318.28125 203.394531 318.789062 201.6875 C 319.300781 199.984375 319.609375 198.242188 319.726562 196.46875 C 319.839844 194.691406 319.75 192.925781 319.464844 191.167969 C 319.175781 189.414062 318.695312 187.710938 318.019531 186.066406 C 317.363281 184.433594 316.535156 182.898438 315.53125 181.457031 C 314.527344 180.011719 313.371094 178.703125 312.070312 177.527344 C 310.765625 176.347656 309.347656 175.332031 307.816406 174.476562 C 306.28125 173.625 304.671875 172.957031 302.984375 172.46875 C 300.855469 171.847656 298.683594 171.535156 296.464844 171.535156 C 295.386719 171.535156 294.3125 171.609375 293.246094 171.765625 C 294.453125 167.53125 295.195312 163.214844 295.472656 158.816406 C 295.550781 157.765625 295.605469 156.722656 295.640625 155.691406 C 295.890625 148.421875 295.179688 141.238281 294.53125 134.011719 C 293.675781 124.550781 293.917969 114.71875 290.191406 105.796875 C 287.378906 99.039062 279.929688 87.707031 261.714844 87.707031 C 259.894531 87.707031 258.265625 87.820312 256.824219 87.917969 C 255.863281 87.984375 254.957031 88.046875 254.339844 88.046875 L 254.003906 88.046875 C 246.027344 88.066406 239.285156 89.753906 233.886719 93.128906 C 232.394531 92.417969 230.867188 91.804688 229.296875 91.289062 C 223.359375 89.324219 216.007812 88.324219 207.4375 88.3125 L 206.980469 88.3125 C 206.058594 88.277344 204.667969 88.226562 203.03125 88.226562 C 199.597656 88.175781 196.195312 88.492188 192.828125 89.179688 C 186.441406 90.601562 182.398438 93.582031 179.832031 96.722656 C 175.332031 91.90625 168.238281 87.707031 157.15625 87.707031 C 155.339844 87.707031 153.707031 87.820312 152.265625 87.917969 C 151.308594 87.984375 150.398438 88.046875 149.78125 88.046875 L 149.449219 88.046875 C 143.183594 88.046875 137.6875 89.113281 133 91.1875 C 130.925781 90.480469 128.796875 90.121094 126.609375 90.117188 C 124.039062 90.117188 121.539062 90.210938 119.121094 90.296875 C 116.992188 90.375 115.003906 90.445312 113.105469 90.453125 L 112.453125 90.363281 C 110.679688 90.082031 108.894531 89.933594 107.101562 89.914062 C 106.046875 89.921875 104.996094 89.984375 103.949219 90.101562 L 103.496094 90.066406 C 102.644531 90.003906 101.488281 89.914062 100.152344 89.914062 C 96.214844 89.914062 91.054688 90.269531 86.09375 93.007812 C 79.21875 96.804688 75.121094 103.960938 75.121094 112.15625 C 75.121094 112.328125 75.121094 112.511719 75.121094 112.683594 C 75.089844 115.886719 75.027344 123.335938 80.996094 129.375 C 82.878906 131.277344 85.0625 132.726562 87.542969 133.722656 C 87.542969 134.117188 87.507812 134.527344 87.492188 134.945312 C 87.421875 136.425781 87.34375 138.109375 87.34375 139.894531 C 87.34375 140.78125 87.378906 141.570312 87.402344 142.203125 C 87.402344 142.558594 87.429688 142.933594 87.429688 143.125 C 87.429688 144.511719 87.410156 145.917969 87.390625 147.394531 C 87.367188 148.964844 87.34375 150.597656 87.34375 152.269531 C 87.34375 153.183594 87.375 153.992188 87.398438 154.703125 C 87.398438 155.003906 87.417969 155.296875 87.421875 155.546875 L 87.390625 155.808594 C 87.203125 157.203125 87.105469 158.601562 87.09375 160.007812 C 87.09375 162.460938 87.246094 164.65625 87.40625 166.632812 C 87.40625 166.777344 87.386719 166.933594 87.378906 167.0625 C 87.246094 168.921875 87.214844 170.78125 87.28125 172.640625 C 86.761719 172.488281 86.214844 172.339844 85.683594 172.214844 C 83.835938 171.738281 81.957031 171.503906 80.046875 171.5 C 77.828125 171.503906 75.652344 171.816406 73.523438 172.4375 C 71.835938 172.921875 70.226562 173.59375 68.691406 174.449219 C 67.160156 175.300781 65.742188 176.316406 64.4375 177.496094 C 63.136719 178.675781 61.984375 179.984375 60.980469 181.425781 C 59.976562 182.867188 59.144531 184.40625 58.492188 186.035156 C 57.8125 187.683594 57.328125 189.390625 57.035156 191.148438 C 56.746094 192.910156 56.65625 194.679688 56.769531 196.460938 C 56.882812 198.238281 57.195312 199.984375 57.707031 201.691406 C 58.21875 203.402344 58.917969 205.03125 59.800781 206.578125 C 59.898438 206.757812 60.011719 206.933594 60.113281 207.097656 C 58.9375 207.273438 57.714844 207.503906 56.449219 207.808594 C 45.0625 210.617188 37.503906 222.058594 39.238281 233.847656 C 40.839844 244.734375 49.484375 252.726562 60.742188 253.738281 L 60.839844 253.738281 C 59.988281 256.242188 59.570312 258.820312 59.582031 261.464844 C 59.582031 271.140625 65.867188 279.679688 75.234375 282.710938 C 77.519531 283.445312 79.859375 283.8125 82.253906 283.808594 C 89.996094 283.808594 95.589844 280.003906 98.585938 277.960938 L 99.089844 277.605469 C 100.753906 276.488281 102.332031 275.375 103.859375 274.296875 C 104.570312 273.796875 105.28125 273.300781 105.988281 272.804688 C 109.25 270.535156 112.121094 268.535156 114.777344 266.65625 C 116.089844 268.140625 117.589844 269.402344 119.273438 270.449219 C 120.953125 271.492188 122.75 272.277344 124.664062 272.792969 C 126.757812 273.359375 128.886719 273.730469 131.050781 273.898438 C 134.320312 274.191406 137.929688 274.230469 140.710938 274.230469 L 143.453125 274.230469 C 146.304688 274.214844 149.144531 274.027344 151.972656 273.664062 C 153.542969 273.460938 155.09375 273.164062 156.625 272.777344 C 157.617188 272.96875 158.621094 273.089844 159.628906 273.132812 L 160.039062 273.148438 L 160.441406 273.148438 C 161.246094 273.148438 162.414062 273.148438 163.777344 273.050781 L 164.132812 273.050781 C 166.039062 272.988281 169.585938 272.875 173.261719 271.863281 C 174.308594 271.574219 175.332031 271.21875 176.328125 270.792969 C 176.992188 271.183594 177.675781 271.558594 178.378906 271.90625 C 184.359375 274.890625 191.597656 276.402344 199.882812 276.402344 C 201.222656 276.394531 202.546875 276.273438 203.867188 276.046875 C 211.058594 274.953125 217.058594 272.675781 221.8125 269.261719 C 223.753906 271.078125 225.964844 272.464844 228.441406 273.429688 C 230.914062 274.394531 233.480469 274.867188 236.136719 274.84375 C 238.355469 274.816406 240.5625 274.648438 242.761719 274.339844 C 243.492188 274.25 244.179688 274.160156 244.703125 274.117188 L 245.480469 274.050781 L 246.25 273.914062 C 247.597656 273.679688 248.90625 273.304688 250.171875 272.796875 C 251.441406 272.285156 252.644531 271.648438 253.78125 270.886719 C 254.917969 270.125 255.964844 269.253906 256.917969 268.269531 C 257.871094 267.289062 258.714844 266.21875 259.445312 265.058594 C 262.730469 267.378906 266.308594 269.886719 270.53125 272.828125 L 272.660156 274.320312 C 274.1875 275.386719 275.765625 276.511719 277.433594 277.628906 L 277.933594 277.988281 C 280.941406 280.027344 286.53125 283.832031 294.261719 283.832031 C 296.660156 283.835938 299 283.464844 301.28125 282.726562 C 310.648438 279.695312 316.945312 271.15625 316.9375 261.480469 C 316.945312 258.835938 316.527344 256.261719 315.675781 253.761719 L 315.777344 253.761719 C 327.03125 252.75 335.671875 244.757812 337.277344 233.871094 C 339.003906 222.058594 331.445312 210.617188 320.058594 207.800781 Z M 320.058594 207.800781 " fill-opacity="1" fill-rule="nonzero"/></g><path fill="#e5d5b7" d="M 122.238281 117.519531 C 119.980469 117.519531 117.46875 117.117188 117.46875 119.269531 C 117.46875 122.828125 118.136719 126.878906 118.136719 130.851562 L 118.136719 132.601562 C 118.21875 134.824219 118.304688 137.046875 118.304688 139.199219 C 118.304688 139.871094 118.21875 140.546875 118.21875 141.222656 C 118.304688 144.25 118.472656 147.273438 118.472656 150.375 C 118.472656 152.667969 118.21875 154.886719 118.21875 157.246094 C 118.386719 159.0625 118.804688 161.011719 118.804688 162.765625 C 118.804688 163.4375 118.636719 164.046875 118.636719 164.652344 C 118.636719 166.402344 118.804688 168.085938 118.804688 169.769531 C 118.804688 172.191406 119.808594 176.632812 117.132812 177.105469 C 114.785156 177.308594 112.277344 177.78125 110.101562 177.78125 C 105.160156 177.78125 106.582031 169.949219 106.582031 166.746094 C 106.414062 164.730469 106.25 162.707031 106.25 160.554688 C 106.25 159.207031 106.582031 157.792969 106.582031 156.445312 C 106.582031 155.234375 106.5 154.023438 106.5 152.808594 C 106.5 149.714844 106.582031 146.683594 106.582031 143.65625 C 106.582031 142.589844 106.5 141.5 106.5 140.425781 C 106.5 137.664062 106.75 134.902344 106.75 132.144531 C 106.75 127.898438 107.421875 117.597656 105.246094 117.597656 C 102.40625 117.597656 99.296875 117.867188 96.371094 117.867188 C 94.027344 117.867188 94.273438 115.242188 94.273438 112.683594 C 94.273438 109.125 96.621094 108.242188 101.558594 108.242188 C 102.898438 108.242188 104.238281 108.441406 105.578125 108.441406 C 106.582031 108.441406 107.585938 108.242188 108.511719 108.242188 C 110.433594 108.242188 112.277344 108.777344 114.191406 108.777344 C 118.804688 108.777344 123.484375 108.441406 128.007812 108.441406 C 131.203125 108.441406 130.847656 114.367188 130.847656 116.453125 C 130.847656 117.261719 130.261719 117.730469 129.070312 117.730469 C 127.652344 117.730469 126.144531 117.597656 124.71875 117.597656 C 123.914062 117.605469 123.074219 117.519531 122.238281 117.519531 Z M 122.238281 117.519531 " fill-opacity="1" fill-rule="nonzero"/><path fill="#e5d5b7" d="M 173.226562 146.875 C 173.226562 150.984375 173.644531 155.160156 173.644531 159.265625 C 173.644531 165.390625 174.484375 172.457031 167.449219 175.019531 C 162.835938 176.703125 159.078125 177.710938 152.628906 177.710938 C 138.902344 177.710938 137.558594 170.710938 135.636719 152.933594 C 135.296875 150.308594 134.378906 148.085938 134.464844 145.460938 C 134.464844 141.421875 134.882812 137.246094 134.882812 133.207031 C 134.882812 130.851562 134.796875 128.582031 134.632812 126.207031 C 134.632812 117.050781 133.878906 106.34375 150.871094 106.34375 L 151.207031 106.34375 C 153.632812 106.34375 156.148438 106.007812 158.574219 106.007812 C 172.472656 106.007812 172.554688 117.042969 173.484375 134.21875 L 173.402344 134.21875 C 173.394531 138.460938 173.226562 142.632812 173.226562 146.875 Z M 161.421875 148.628906 C 161.085938 140.144531 160.585938 131.660156 160.082031 123.242188 C 159.746094 120.011719 159.160156 115.113281 154.976562 115.113281 C 145.683594 115.113281 148.023438 119.964844 147.359375 124.675781 C 147.160156 126.105469 147.046875 127.542969 147.019531 128.984375 C 147.019531 134.4375 146.855469 140.5625 147.859375 145.882812 L 147.859375 146.285156 C 147.859375 147.5 147.273438 148.578125 147.273438 149.84375 C 147.273438 156.308594 145.515625 166.878906 152.953125 166.878906 C 159.230469 166.878906 161.65625 164.386719 161.65625 159.273438 C 161.65625 155.714844 161.410156 152.199219 161.324219 148.636719 Z M 161.421875 148.628906 " fill-opacity="1" fill-rule="nonzero"/><path fill="#e5d5b7" d="M 233.996094 146.875 C 233.996094 151.183594 233.492188 155.417969 233.15625 159.734375 C 233.15625 170.910156 226.210938 176.632812 210.636719 176.632812 L 209.035156 176.632812 C 206.105469 176.632812 203.175781 176.972656 200.160156 176.972656 C 193.878906 176.972656 194.21875 175.625 193.378906 164.71875 C 193.042969 160.542969 192.960938 156.503906 192.875 152.261719 L 192.875 151.320312 C 192.875 150.78125 192.792969 150.25 192.792969 149.703125 C 192.792969 143.578125 192.960938 137.179688 193.714844 131.121094 C 193.796875 130.054688 193.796875 128.984375 193.878906 127.957031 C 193.878906 127.347656 193.796875 126.675781 193.796875 126.070312 C 193.796875 120.550781 194.132812 115.09375 194.464844 109.507812 C 195.050781 105.671875 206.941406 106.613281 208.703125 106.613281 C 221.089844 106.613281 232.058594 109.105469 232.980469 115.769531 C 233.398438 118.492188 233.648438 121.230469 233.730469 123.984375 C 233.730469 124.320312 233.652344 124.726562 233.652344 125.054688 C 233.652344 128.757812 233.730469 132.460938 233.984375 136.230469 Z M 205.863281 131.390625 C 205.863281 135.5625 206.199219 139.46875 206.199219 143.644531 C 206.199219 144.921875 205.945312 146.203125 205.945312 147.558594 C 205.945312 149.039062 206.449219 150.589844 206.53125 152.070312 C 206.703125 156.648438 206.785156 161.226562 207.121094 165.808594 C 207.121094 166.949219 207.621094 167.152344 208.960938 167.152344 C 212.980469 167.152344 218.839844 166.007812 220.011719 162.371094 C 221.144531 158.550781 221.703125 154.644531 221.6875 150.65625 C 221.6875 149.714844 221.605469 148.769531 221.605469 147.832031 C 221.605469 142.039062 222.523438 135.910156 222.523438 130.121094 C 222.523438 128.371094 222.191406 126.6875 222.273438 125.003906 L 222.273438 123.792969 C 222.273438 121.03125 221.6875 116.675781 218.171875 116.320312 L 212.898438 115.914062 C 205.359375 116.242188 205.863281 115.824219 205.863281 131.390625 Z M 205.863281 131.390625 " fill-opacity="1" fill-rule="nonzero"/><path fill="#e5d5b7" d="M 277.785156 146.875 C 277.785156 150.984375 278.203125 155.160156 278.203125 159.265625 C 278.203125 165.390625 279.039062 172.457031 272.003906 175.019531 C 267.390625 176.703125 263.632812 177.710938 257.1875 177.710938 C 243.457031 177.710938 242.117188 170.710938 240.191406 152.933594 C 239.855469 150.308594 238.9375 148.085938 239.019531 145.460938 C 239.019531 141.421875 239.4375 137.246094 239.4375 133.207031 C 239.4375 130.851562 239.355469 128.582031 239.183594 126.207031 C 239.183594 117.050781 238.433594 106.34375 255.429688 106.34375 L 255.761719 106.34375 C 258.191406 106.34375 260.703125 106.007812 263.128906 106.007812 C 277.027344 106.007812 277.113281 117.042969 278.039062 134.21875 L 277.957031 134.21875 C 277.949219 138.460938 277.785156 142.632812 277.785156 146.875 Z M 265.976562 148.628906 C 265.644531 140.144531 265.140625 131.660156 264.636719 123.242188 C 264.304688 120.011719 263.703125 115.113281 259.53125 115.113281 C 250.234375 115.113281 252.582031 119.964844 251.910156 124.675781 C 251.71875 126.105469 251.605469 127.542969 251.578125 128.984375 C 251.578125 134.4375 251.410156 140.5625 252.414062 145.882812 L 252.414062 146.285156 C 252.414062 147.5 251.832031 148.578125 251.832031 149.84375 C 251.832031 156.308594 250.054688 166.878906 257.511719 166.878906 C 263.789062 166.878906 266.21875 164.386719 266.21875 159.273438 C 266.21875 155.714844 265.964844 152.199219 265.882812 148.636719 Z M 265.976562 148.628906 " fill-opacity="1" fill-rule="nonzero"/><path fill="#e5d5b7" d="M 139.101562 198.039062 C 139.101562 199.382812 138.847656 200.726562 138.847656 202.078125 C 138.847656 205.105469 139.351562 208.203125 139.351562 211.230469 C 139.351562 214.664062 139.265625 217.964844 139.265625 221.464844 C 139.265625 222.890625 139.351562 224.296875 139.351562 225.640625 C 139.351562 226.109375 139.265625 226.582031 139.265625 227.121094 C 139.265625 233.652344 140.523438 240.316406 140.523438 246.78125 C 140.609375 247.386719 141.195312 247.65625 142.113281 247.65625 C 145.800781 247.65625 149.480469 247.050781 153 246.917969 C 155.839844 246.917969 156.011719 254.050781 156.011719 254.457031 C 156.011719 256.679688 146.464844 256.949219 144.875 256.949219 C 140.691406 256.949219 129.890625 257.148438 129.472656 255.265625 C 128.535156 251.257812 128.0625 247.195312 128.054688 243.078125 L 128.054688 241.65625 C 128.054688 240.984375 127.96875 240.3125 127.96875 239.636719 C 127.96875 238.570312 128.132812 237.414062 128.132812 236.339844 C 128.132812 235.125 127.886719 233.914062 127.886719 232.703125 C 127.886719 231.222656 128.054688 229.671875 128.054688 228.191406 C 128.054688 224.554688 127.46875 220.921875 127.46875 217.285156 C 127.46875 215.332031 127.550781 213.3125 127.550781 211.359375 C 127.550781 210.148438 127.46875 208.933594 127.46875 207.65625 C 127.46875 206.378906 127.550781 205.234375 127.550781 203.953125 L 127.550781 198.921875 C 127.550781 196.496094 127.550781 194.003906 127.300781 191.515625 C 127.300781 189.832031 127.214844 188.351562 130.496094 188.351562 C 137.277344 188.351562 138.953125 188.28125 138.953125 194.949219 C 138.953125 195.015625 138.953125 195.015625 138.867188 195.015625 C 138.921875 196.027344 139.101562 197.039062 139.101562 198.039062 Z M 139.101562 198.039062 " fill-opacity="1" fill-rule="nonzero"/><path fill="#e5d5b7" d="M 159.101562 243.492188 C 159.101562 241.136719 159.769531 238.578125 159.769531 236.289062 C 159.769531 235.144531 159.515625 233.933594 159.515625 232.730469 C 159.515625 230.507812 160.019531 228.222656 160.019531 225.996094 C 160.019531 224.785156 159.855469 223.441406 159.855469 222.226562 C 159.855469 218.054688 160.105469 213.945312 160.105469 209.769531 C 160.105469 206.273438 159.433594 202.769531 159.433594 199.335938 C 159.433594 194.957031 158.511719 189.910156 163.539062 189.910156 C 165.460938 189.910156 167.386719 189.84375 169.394531 189.84375 C 171.996094 189.84375 171.65625 192.875 171.65625 194.957031 C 171.65625 195.5 171.492188 196.027344 171.492188 196.574219 C 171.492188 198.257812 171.824219 200.007812 171.824219 201.691406 C 171.824219 203.78125 171.574219 205.867188 171.574219 207.886719 C 171.574219 209.703125 171.65625 211.589844 171.65625 213.339844 C 171.65625 215.695312 171.070312 218.054688 171.238281 220.339844 C 171.214844 228.835938 171.71875 237.296875 172.746094 245.726562 C 173 247.882812 172.914062 250.171875 172.914062 252.324219 C 172.914062 255.964844 166.214844 255.691406 164.039062 255.828125 C 163.285156 255.894531 162.535156 255.894531 161.863281 255.894531 C 158.929688 255.761719 159.183594 250.171875 159.183594 247.355469 L 159.183594 246.546875 C 159.183594 245.445312 159.101562 244.503906 159.101562 243.492188 Z M 159.101562 243.492188 " fill-opacity="1" fill-rule="nonzero"/><path fill="#e5d5b7" d="M 205.316406 236.085938 C 205.316406 231.84375 204.5625 229.488281 200.542969 229.488281 L 199.539062 229.488281 C 196.859375 229.488281 194.179688 228.949219 191.417969 228.949219 L 190.574219 228.949219 C 181.871094 228.949219 180.109375 221.476562 178.4375 216.09375 C 177.605469 214.136719 177.441406 208.6875 177.441406 206.933594 C 177.441406 204.84375 177.941406 202.761719 177.941406 200.527344 L 177.941406 199.992188 C 177.941406 191.308594 186.5625 188.34375 196.441406 188.34375 L 200.703125 188.34375 C 209.910156 188.34375 217.113281 191.191406 217.113281 201.339844 L 217.113281 201.742188 C 217.113281 203.492188 217.464844 205.378906 217.464844 207.125 C 217.464844 208.746094 216.878906 209.488281 213.695312 209.488281 C 212.863281 209.488281 212.023438 209.417969 211.1875 209.417969 C 209.765625 209.417969 208.347656 209.554688 206.925781 209.554688 C 205.921875 209.554688 205.335938 209.082031 205.335938 208.273438 C 205.335938 206.847656 206.007812 205.246094 206.007812 203.828125 C 206.007812 200.195312 202.992188 197.777344 197.300781 197.777344 C 189.09375 197.777344 190.347656 214.410156 190.347656 214.878906 C 190.347656 219.324219 195.960938 219.257812 199.640625 219.457031 C 200.984375 219.457031 202.480469 219.121094 202.992188 219.121094 C 213.539062 219.121094 215.632812 223.496094 217.058594 228.882812 C 217.582031 230.824219 217.863281 232.796875 217.894531 234.808594 C 217.894531 235.75 217.8125 236.757812 217.8125 237.703125 C 217.8125 239.316406 218.0625 241 218.0625 242.617188 C 218.0625 250.496094 215.96875 256.960938 202.574219 258.988281 C 202.160156 259.066406 201.738281 259.113281 201.316406 259.125 C 191.941406 259.125 181.390625 256.429688 180.371094 246.128906 C 180.078125 244.003906 179.910156 241.871094 179.867188 239.722656 C 180.039062 237.566406 185.230469 237.703125 188.15625 237.367188 C 189.832031 237.367188 191.257812 237.566406 191.257812 239.792969 C 191.257812 240.464844 191.003906 241.136719 191.003906 241.808594 C 191.003906 245.722656 193.84375 249.214844 198.203125 249.214844 C 204.902344 249.214844 205.488281 246.390625 205.488281 239.113281 L 205.320312 239.113281 Z M 205.316406 236.085938 " fill-opacity="1" fill-rule="nonzero"/><path fill="#e5d5b7" d="M 249.691406 197.304688 C 247.429688 197.304688 244.914062 196.902344 244.914062 199.054688 C 244.914062 202.613281 245.585938 206.664062 245.585938 210.636719 L 245.585938 212.386719 C 245.671875 214.609375 245.753906 216.832031 245.753906 218.984375 C 245.753906 219.65625 245.671875 220.332031 245.671875 221.007812 C 245.753906 224.035156 245.917969 227.058594 245.917969 230.160156 C 245.917969 232.453125 245.671875 234.671875 245.671875 237.03125 C 245.835938 238.847656 246.257812 240.796875 246.257812 242.550781 C 246.257812 243.222656 246.089844 243.832031 246.089844 244.4375 C 246.089844 246.1875 246.257812 247.871094 246.257812 249.554688 C 246.257812 251.976562 247.261719 256.417969 244.582031 256.890625 C 242.238281 257.09375 239.726562 257.566406 237.546875 257.566406 C 232.609375 257.566406 234.035156 249.753906 234.035156 246.53125 C 233.863281 244.515625 233.695312 242.492188 233.695312 240.339844 C 233.695312 238.996094 234.035156 237.578125 234.035156 236.230469 C 234.035156 235.019531 233.949219 233.808594 233.949219 232.59375 C 233.949219 229.5 234.035156 226.46875 234.035156 223.441406 C 234.035156 222.375 233.949219 221.285156 233.949219 220.210938 C 233.949219 217.449219 234.199219 214.6875 234.199219 211.929688 C 234.199219 207.6875 234.867188 197.382812 232.691406 197.382812 C 229.851562 197.382812 226.75 197.652344 223.816406 197.652344 C 221.472656 197.652344 221.726562 195.027344 221.726562 192.46875 C 221.726562 188.910156 224.070312 188.027344 229.007812 188.027344 C 230.347656 188.027344 231.6875 188.230469 233.03125 188.230469 C 234.035156 188.230469 235.039062 188.027344 235.957031 188.027344 C 237.882812 188.027344 239.726562 188.5625 241.636719 188.5625 C 246.253906 188.5625 250.929688 188.230469 255.453125 188.230469 C 258.644531 188.230469 258.292969 194.152344 258.292969 196.238281 C 258.292969 197.046875 257.707031 197.519531 256.535156 197.519531 C 255.113281 197.519531 253.601562 197.382812 252.179688 197.382812 C 251.363281 197.371094 250.527344 197.304688 249.691406 197.304688 Z M 249.691406 197.304688 " fill-opacity="1" fill-rule="nonzero"/><path fill="#e5d5b7" d="M 107.636719 206.417969 L 95.691406 198.125 C 93.75 196.777344 91.785156 195.449219 89.847656 194.117188 C 87.765625 192.691406 85.433594 190.515625 82.910156 190.046875 C 81.894531 189.75 80.875 189.753906 79.863281 190.066406 C 76.386719 191.074219 74.890625 195.160156 76.667969 198.277344 C 78.085938 200.765625 81.140625 202.363281 83.449219 204.007812 C 85.472656 205.453125 87.496094 206.902344 89.523438 208.332031 L 101.703125 216.898438 C 104.289062 218.71875 108.515625 217.339844 109.902344 214.632812 C 111.496094 211.507812 110.40625 208.359375 107.636719 206.417969 Z M 107.636719 206.417969 " fill-opacity="1" fill-rule="nonzero"/><path fill="#e5d5b7" d="M 90.425781 223.746094 L 75.238281 225.007812 C 72.753906 225.210938 70.292969 225.4375 67.824219 225.667969 C 65.011719 225.929688 62.035156 225.972656 59.304688 226.652344 C 56.574219 227.332031 55.007812 230.210938 55.398438 232.828125 C 55.828125 235.742188 58.125 237.34375 60.929688 237.59375 C 63.34375 237.8125 65.925781 237.402344 68.347656 237.261719 C 70.765625 237.117188 73.292969 236.957031 75.765625 236.789062 L 90.582031 235.761719 C 93.699219 235.546875 96.683594 233.050781 96.488281 229.683594 C 96.3125 226.609375 93.765625 223.472656 90.425781 223.746094 Z M 90.425781 223.746094 " fill-opacity="1" fill-rule="nonzero"/><path fill="#e5d5b7" d="M 112.242188 241.4375 C 110.601562 238.945312 106.726562 237.394531 104.054688 239.398438 C 99.730469 242.636719 95.417969 245.894531 91.121094 249.167969 C 89.0625 250.734375 86.988281 252.277344 84.945312 253.863281 C 82.230469 255.972656 78.75 258.152344 78.75 261.972656 C 78.75 264.046875 80.230469 265.671875 82.109375 266.28125 C 85.210938 267.289062 88.179688 265 90.628906 263.34375 C 92.863281 261.847656 95.046875 260.261719 97.257812 258.71875 C 101.578125 255.703125 105.890625 252.675781 110.195312 249.636719 C 112.753906 247.863281 114.113281 244.261719 112.242188 241.4375 Z M 112.242188 241.4375 " fill-opacity="1" fill-rule="nonzero"/><path fill="#e5d5b7" d="M 271.703125 206.417969 L 283.648438 198.125 C 285.589844 196.777344 287.554688 195.449219 289.496094 194.117188 C 291.574219 192.691406 293.90625 190.515625 296.433594 190.046875 C 297.449219 189.75 298.46875 189.753906 299.480469 190.066406 C 302.953125 191.074219 304.453125 195.160156 302.675781 198.277344 C 301.257812 200.765625 298.203125 202.363281 295.894531 204.007812 C 293.871094 205.453125 291.851562 206.902344 289.820312 208.332031 C 285.765625 211.195312 281.703125 214.054688 277.636719 216.898438 C 275.054688 218.71875 270.824219 217.339844 269.441406 214.632812 C 267.84375 211.507812 268.9375 208.359375 271.703125 206.417969 Z M 271.703125 206.417969 " fill-opacity="1" fill-rule="nonzero"/><path fill="#e5d5b7" d="M 286.070312 222.675781 L 301.257812 223.933594 C 303.742188 224.136719 306.199219 224.363281 308.667969 224.59375 C 311.484375 224.859375 314.460938 224.898438 317.1875 225.578125 C 319.914062 226.257812 321.484375 229.136719 321.09375 231.75 C 320.664062 234.667969 318.363281 236.269531 315.5625 236.519531 C 313.144531 236.738281 310.566406 236.328125 308.144531 236.1875 C 305.71875 236.042969 303.199219 235.882812 300.726562 235.710938 L 285.925781 234.695312 C 282.808594 234.472656 279.824219 231.980469 280.015625 228.617188 C 280.195312 225.535156 282.738281 222.398438 286.070312 222.675781 Z M 286.070312 222.675781 " fill-opacity="1" fill-rule="nonzero"/><path fill="#e5d5b7" d="M 267.097656 241.4375 C 268.738281 238.945312 272.613281 237.394531 275.285156 239.398438 C 279.609375 242.636719 283.921875 245.894531 288.222656 249.167969 C 290.277344 250.734375 292.351562 252.277344 294.394531 253.863281 C 297.109375 255.972656 300.59375 258.152344 300.597656 261.972656 C 300.597656 264.046875 299.117188 265.671875 297.234375 266.28125 C 294.132812 267.289062 291.164062 265 288.714844 263.34375 C 286.476562 261.847656 284.292969 260.261719 282.085938 258.71875 C 277.761719 255.703125 273.449219 252.675781 269.148438 249.636719 C 266.585938 247.863281 265.226562 244.261719 267.097656 241.4375 Z M 267.097656 241.4375 " fill-opacity="1" fill-rule="nonzero"/><path fill="#fc9f42" d="M 122.238281 117.015625 C 119.980469 117.015625 117.46875 116.609375 117.46875 118.769531 C 117.46875 122.328125 118.136719 126.378906 118.136719 130.347656 L 118.136719 132.101562 C 118.21875 134.320312 118.304688 136.542969 118.304688 138.695312 C 118.304688 139.371094 118.21875 140.042969 118.21875 140.714844 C 118.304688 143.746094 118.472656 146.765625 118.472656 149.875 C 118.472656 152.160156 118.21875 154.382812 118.21875 156.738281 C 118.386719 158.558594 118.804688 160.511719 118.804688 162.261719 C 118.804688 162.933594 118.636719 163.539062 118.636719 164.144531 C 118.636719 165.894531 118.804688 167.578125 118.804688 169.261719 C 118.804688 171.6875 119.808594 176.132812 117.132812 176.601562 C 114.785156 176.804688 112.277344 177.273438 110.101562 177.273438 C 105.160156 177.273438 106.582031 169.464844 106.582031 166.242188 C 106.414062 164.21875 106.25 162.203125 106.25 160.046875 C 106.25 158.699219 106.582031 157.285156 106.582031 155.9375 C 106.582031 154.726562 106.5 153.515625 106.5 152.304688 C 106.5 149.207031 106.582031 146.175781 106.582031 143.148438 C 106.582031 142.078125 106.5 140.992188 106.5 139.914062 C 106.5 137.152344 106.75 134.394531 106.75 131.632812 C 106.75 127.390625 107.421875 117.089844 105.246094 117.089844 C 102.40625 117.089844 99.296875 117.363281 96.371094 117.363281 C 94.027344 117.363281 94.273438 114.734375 94.273438 112.175781 C 94.273438 108.617188 96.621094 107.730469 101.558594 107.730469 C 102.898438 107.730469 104.238281 107.933594 105.578125 107.933594 C 106.582031 107.933594 107.585938 107.730469 108.511719 107.730469 C 110.433594 107.730469 112.277344 108.273438 114.191406 108.273438 C 118.804688 108.273438 123.484375 107.933594 128.007812 107.933594 C 131.203125 107.933594 130.847656 113.859375 130.847656 115.945312 C 130.847656 116.753906 130.261719 117.226562 129.070312 117.226562 C 127.652344 117.226562 126.144531 117.089844 124.71875 117.089844 C 123.914062 117.085938 123.074219 117.015625 122.238281 117.015625 Z M 122.238281 117.015625 " fill-opacity="1" fill-rule="nonzero"/><path fill="#fc9f42" d="M 173.226562 146.371094 C 173.226562 150.480469 173.644531 154.652344 173.644531 158.761719 C 173.644531 164.890625 174.484375 171.957031 167.449219 174.515625 C 162.835938 176.199219 159.078125 177.207031 152.628906 177.207031 C 138.902344 177.207031 137.558594 170.207031 135.636719 152.433594 C 135.296875 149.804688 134.378906 147.585938 134.464844 144.957031 C 134.464844 140.917969 134.882812 136.746094 134.882812 132.703125 C 134.882812 130.347656 134.796875 128.058594 134.632812 125.699219 C 134.632812 116.546875 133.878906 105.839844 150.871094 105.839844 L 151.207031 105.839844 C 153.632812 105.839844 156.148438 105.484375 158.574219 105.484375 C 172.472656 105.484375 172.554688 116.519531 173.484375 133.699219 L 173.402344 133.699219 C 173.394531 137.953125 173.226562 142.128906 173.226562 146.371094 Z M 161.421875 148.121094 C 161.085938 139.636719 160.585938 131.15625 160.082031 122.738281 C 159.746094 119.507812 159.160156 114.59375 154.976562 114.59375 C 145.683594 114.59375 148.023438 119.441406 147.359375 124.152344 C 147.160156 125.582031 147.046875 127.019531 147.019531 128.460938 C 147.019531 133.914062 146.855469 140.042969 147.859375 145.359375 L 147.859375 145.765625 C 147.859375 146.976562 147.273438 148.054688 147.273438 149.324219 C 147.273438 155.789062 145.515625 166.359375 152.953125 166.359375 C 159.230469 166.359375 161.65625 163.867188 161.65625 158.75 C 161.65625 155.191406 161.410156 151.679688 161.324219 148.113281 Z M 161.421875 148.121094 " fill-opacity="1" fill-rule="nonzero"/><path fill="#fc90ad" d="M 233.996094 146.371094 C 233.996094 150.679688 233.492188 154.914062 233.15625 159.230469 C 233.15625 170.410156 226.210938 176.132812 210.636719 176.132812 L 209.035156 176.132812 C 206.105469 176.132812 203.175781 176.464844 200.160156 176.464844 C 193.878906 176.464844 194.21875 175.121094 193.378906 164.210938 C 193.042969 160.039062 192.960938 156 192.875 151.757812 L 192.875 150.8125 C 192.875 150.273438 192.792969 149.746094 192.792969 149.199219 C 192.792969 143.070312 192.960938 136.671875 193.714844 130.613281 C 193.796875 129.542969 193.796875 128.476562 193.878906 127.449219 C 193.878906 126.84375 193.796875 126.171875 193.796875 125.566406 C 193.796875 120.042969 194.132812 114.589844 194.464844 109.003906 C 195.050781 105.160156 206.941406 106.105469 208.703125 106.105469 C 221.089844 106.105469 232.058594 108.597656 232.980469 115.261719 C 233.398438 117.984375 233.648438 120.722656 233.730469 123.476562 C 233.730469 123.816406 233.652344 124.21875 233.652344 124.542969 C 233.652344 128.246094 233.730469 131.949219 233.984375 135.71875 Z M 205.863281 130.886719 C 205.863281 135.0625 206.199219 138.964844 206.199219 143.140625 C 206.199219 144.421875 205.945312 145.699219 205.945312 147.054688 C 205.945312 148.539062 206.449219 150.085938 206.53125 151.566406 C 206.703125 156.144531 206.785156 160.726562 207.121094 165.300781 C 207.121094 166.449219 207.621094 166.648438 208.960938 166.648438 C 212.980469 166.648438 218.839844 165.503906 220.011719 161.867188 C 221.144531 158.046875 221.703125 154.140625 221.6875 150.15625 C 221.6875 149.210938 221.605469 148.269531 221.605469 147.308594 C 221.605469 141.515625 222.523438 135.390625 222.523438 129.601562 C 222.523438 127.851562 222.191406 126.167969 222.273438 124.484375 L 222.273438 123.277344 C 222.273438 120.519531 221.6875 116.160156 218.171875 115.804688 L 212.898438 115.402344 C 205.359375 115.738281 205.863281 115.332031 205.863281 130.886719 Z M 205.863281 130.886719 " fill-opacity="1" fill-rule="nonzero"/><path fill="#fc90ad" d="M 277.785156 146.371094 C 277.785156 150.480469 278.203125 154.652344 278.203125 158.761719 C 278.203125 164.890625 279.039062 171.957031 272.003906 174.515625 C 267.390625 176.199219 263.632812 177.207031 257.1875 177.207031 C 243.457031 177.207031 242.117188 170.207031 240.191406 152.433594 C 239.855469 149.804688 238.9375 147.585938 239.019531 144.957031 C 239.019531 140.917969 239.4375 136.746094 239.4375 132.703125 C 239.4375 130.347656 239.355469 128.058594 239.183594 125.699219 C 239.183594 116.546875 238.433594 105.839844 255.429688 105.839844 L 255.761719 105.839844 C 258.191406 105.839844 260.703125 105.484375 263.128906 105.484375 C 277.027344 105.484375 277.113281 116.519531 278.039062 133.699219 L 277.957031 133.699219 C 277.949219 137.953125 277.785156 142.128906 277.785156 146.371094 Z M 265.976562 148.121094 C 265.644531 139.636719 265.140625 131.15625 264.636719 122.738281 C 264.304688 119.507812 263.714844 114.59375 259.53125 114.59375 C 250.234375 114.59375 252.582031 119.441406 251.910156 124.152344 C 251.71875 125.582031 251.605469 127.019531 251.578125 128.460938 C 251.578125 133.914062 251.410156 140.042969 252.414062 145.359375 L 252.414062 145.765625 C 252.414062 146.976562 251.832031 148.054688 251.832031 149.324219 C 251.832031 155.789062 250.054688 166.359375 257.511719 166.359375 C 263.789062 166.359375 266.21875 163.867188 266.21875 158.75 C 266.21875 155.191406 265.964844 151.679688 265.882812 148.113281 Z M 265.976562 148.121094 " fill-opacity="1" fill-rule="nonzero"/><path fill="#73b8c9" d="M 139.101562 197.542969 C 139.101562 198.886719 138.847656 200.238281 138.847656 201.582031 C 138.847656 204.609375 139.351562 207.710938 139.351562 210.738281 C 139.351562 214.171875 139.265625 217.472656 139.265625 220.972656 C 139.265625 222.394531 139.351562 223.800781 139.351562 225.144531 C 139.351562 225.621094 139.265625 226.089844 139.265625 226.628906 C 139.265625 233.160156 140.523438 239.824219 140.523438 246.289062 C 140.609375 246.894531 141.195312 247.160156 142.113281 247.160156 C 145.800781 247.160156 149.480469 246.558594 153 246.421875 C 155.839844 246.421875 156.011719 253.5625 156.011719 253.964844 C 156.011719 256.183594 146.464844 256.453125 144.875 256.453125 C 140.691406 256.453125 129.890625 256.65625 129.472656 254.769531 C 128.535156 250.761719 128.0625 246.703125 128.054688 242.585938 L 128.054688 241.160156 C 128.054688 240.488281 127.96875 239.8125 127.96875 239.140625 C 127.96875 238.074219 128.132812 236.917969 128.132812 235.839844 C 128.132812 234.628906 127.886719 233.417969 127.886719 232.207031 C 127.886719 230.726562 128.054688 229.175781 128.054688 227.695312 C 128.054688 224.0625 127.46875 220.421875 127.46875 216.789062 C 127.46875 214.835938 127.550781 212.8125 127.550781 210.863281 C 127.550781 209.648438 127.46875 208.441406 127.46875 207.160156 C 127.46875 205.878906 127.550781 204.734375 127.550781 203.457031 L 127.550781 198.417969 C 127.550781 195.996094 127.550781 193.503906 127.300781 191.011719 C 127.300781 189.328125 127.214844 187.847656 130.496094 187.847656 C 137.277344 187.847656 138.953125 187.78125 138.953125 194.445312 C 138.953125 194.515625 138.953125 194.515625 138.867188 194.515625 C 138.921875 195.519531 139.101562 196.53125 139.101562 197.542969 Z M 139.101562 197.542969 " fill-opacity="1" fill-rule="nonzero"/><path fill="#73b8c9" d="M 159.101562 242.992188 C 159.101562 240.632812 159.769531 238.074219 159.769531 235.785156 C 159.769531 234.640625 159.515625 233.429688 159.515625 232.226562 C 159.515625 230 160.019531 227.710938 160.019531 225.492188 C 160.019531 224.277344 159.855469 222.933594 159.855469 221.722656 C 159.855469 217.546875 160.105469 213.441406 160.105469 209.265625 C 160.105469 205.765625 159.433594 202.261719 159.433594 198.828125 C 159.433594 194.453125 158.511719 189.402344 163.539062 189.402344 C 165.460938 189.402344 167.386719 189.335938 169.394531 189.335938 C 171.996094 189.335938 171.65625 192.363281 171.65625 194.453125 C 171.65625 194.992188 171.492188 195.519531 171.492188 196.070312 C 171.492188 197.753906 171.824219 199.503906 171.824219 201.1875 C 171.824219 203.273438 171.574219 205.359375 171.574219 207.378906 C 171.574219 209.199219 171.65625 211.085938 171.65625 212.832031 C 171.65625 215.191406 171.070312 217.546875 171.238281 219.835938 C 171.214844 228.328125 171.71875 236.789062 172.746094 245.21875 C 173 247.371094 172.914062 249.660156 172.914062 251.816406 C 172.914062 255.449219 166.214844 255.183594 164.039062 255.320312 C 163.285156 255.382812 162.535156 255.382812 161.863281 255.382812 C 158.929688 255.25 159.183594 249.660156 159.183594 246.839844 L 159.183594 246.035156 C 159.183594 244.941406 159.101562 244 159.101562 242.992188 Z M 159.101562 242.992188 " fill-opacity="1" fill-rule="nonzero"/><path fill="#73b8c9" d="M 205.316406 235.585938 C 205.316406 231.34375 204.5625 228.984375 200.542969 228.984375 L 199.539062 228.984375 C 196.859375 228.984375 194.179688 228.445312 191.417969 228.445312 L 190.574219 228.445312 C 181.871094 228.445312 180.109375 220.972656 178.4375 215.585938 C 177.601562 213.632812 177.433594 208.179688 177.433594 206.429688 C 177.433594 204.34375 177.933594 202.253906 177.933594 200.023438 L 177.933594 199.496094 C 177.933594 190.808594 186.558594 187.847656 196.4375 187.847656 L 200.695312 187.847656 C 209.90625 187.847656 217.105469 190.671875 217.105469 200.839844 L 217.105469 201.242188 C 217.105469 202.992188 217.460938 204.878906 217.460938 206.628906 C 217.460938 208.246094 216.875 208.984375 213.6875 208.984375 C 212.855469 208.984375 212.015625 208.917969 211.179688 208.917969 C 209.757812 208.917969 208.339844 209.050781 206.917969 209.050781 C 205.914062 209.050781 205.328125 208.582031 205.328125 207.773438 C 205.328125 206.351562 206 204.742188 206 203.328125 C 206 199.691406 202.984375 197.277344 197.292969 197.277344 C 189.085938 197.277344 190.339844 213.910156 190.339844 214.363281 C 190.339844 218.808594 195.953125 218.738281 199.636719 218.941406 C 200.976562 218.941406 202.476562 218.605469 202.984375 218.605469 C 213.53125 218.605469 215.628906 222.980469 217.050781 228.367188 C 217.578125 230.308594 217.855469 232.28125 217.890625 234.292969 C 217.890625 235.234375 217.804688 236.246094 217.804688 237.191406 C 217.804688 238.804688 218.054688 240.488281 218.054688 242.105469 C 218.054688 249.980469 215.960938 256.445312 202.566406 258.476562 C 202.152344 258.554688 201.734375 258.601562 201.308594 258.609375 C 191.933594 258.609375 181.382812 255.917969 180.367188 245.613281 C 180.070312 243.488281 179.902344 241.351562 179.863281 239.207031 C 180.03125 237.074219 185.222656 237.191406 188.152344 236.851562 C 189.828125 236.851562 191.25 237.054688 191.25 239.273438 C 191.25 239.949219 190.996094 240.621094 190.996094 241.296875 C 190.996094 245.210938 193.835938 248.703125 198.195312 248.703125 C 204.894531 248.703125 205.480469 245.875 205.480469 238.601562 L 205.316406 238.601562 Z M 205.316406 235.585938 " fill-opacity="1" fill-rule="nonzero"/><path fill="#73b8c9" d="M 249.691406 196.800781 C 247.429688 196.800781 244.914062 196.398438 244.914062 198.554688 C 244.914062 202.113281 245.585938 206.164062 245.585938 210.132812 L 245.585938 211.886719 C 245.671875 214.105469 245.753906 216.328125 245.753906 218.480469 C 245.753906 219.15625 245.671875 219.828125 245.671875 220.5 C 245.753906 223.53125 245.917969 226.550781 245.917969 229.660156 C 245.917969 231.949219 245.671875 234.167969 245.671875 236.523438 C 245.835938 238.34375 246.257812 240.296875 246.257812 242.046875 C 246.257812 242.71875 246.089844 243.324219 246.089844 243.929688 C 246.089844 245.679688 246.257812 247.363281 246.257812 249.046875 C 246.257812 251.472656 247.261719 255.917969 244.582031 256.386719 C 242.238281 256.589844 239.726562 257.058594 237.546875 257.058594 C 232.609375 257.058594 234.035156 249.25 234.035156 246.027344 C 233.863281 244.003906 233.695312 241.988281 233.695312 239.832031 C 233.695312 238.484375 234.035156 237.074219 234.035156 235.722656 C 234.035156 234.511719 233.949219 233.300781 233.949219 232.089844 C 233.949219 228.992188 234.035156 225.960938 234.035156 222.933594 C 234.035156 221.863281 233.949219 220.777344 233.949219 219.699219 C 233.949219 216.9375 234.199219 214.179688 234.199219 211.417969 C 234.199219 207.175781 234.867188 196.878906 232.691406 196.878906 C 229.851562 196.878906 226.75 197.144531 223.816406 197.144531 C 221.472656 197.144531 221.726562 194.519531 221.726562 191.960938 C 221.726562 188.402344 224.070312 187.515625 229.007812 187.515625 C 230.347656 187.515625 231.6875 187.71875 233.03125 187.71875 C 234.035156 187.71875 235.039062 187.515625 235.957031 187.515625 C 237.882812 187.515625 239.726562 188.058594 241.636719 188.058594 C 246.253906 188.058594 250.929688 187.71875 255.453125 187.71875 C 258.644531 187.71875 258.292969 193.644531 258.292969 195.730469 C 258.292969 196.539062 257.707031 197.011719 256.535156 197.011719 C 255.113281 197.011719 253.601562 196.878906 252.179688 196.878906 C 251.363281 196.871094 250.527344 196.800781 249.691406 196.800781 Z M 249.691406 196.800781 " fill-opacity="1" fill-rule="nonzero"/><path fill="#fc90ad" d="M 107.636719 205.914062 L 95.691406 197.621094 C 93.75 196.277344 91.785156 194.945312 89.847656 193.609375 C 87.765625 192.1875 85.433594 190.011719 82.910156 189.546875 C 81.894531 189.242188 80.875 189.25 79.863281 189.5625 C 76.386719 190.570312 74.890625 194.660156 76.667969 197.773438 C 78.085938 200.265625 81.140625 201.859375 83.449219 203.507812 C 85.472656 204.949219 87.496094 206.398438 89.523438 207.828125 L 101.71875 216.402344 C 104.304688 218.214844 108.53125 216.839844 109.917969 214.132812 C 111.496094 211.007812 110.40625 207.835938 107.636719 205.914062 Z M 107.636719 205.914062 " fill-opacity="1" fill-rule="nonzero"/><path fill="#fc90ad" d="M 90.425781 223.246094 L 75.238281 224.5 C 72.765625 224.707031 70.292969 224.929688 67.824219 225.164062 C 65.011719 225.425781 62.035156 225.464844 59.304688 226.148438 C 56.574219 226.832031 55.007812 229.707031 55.398438 232.324219 C 55.828125 235.234375 58.125 236.835938 60.929688 237.089844 C 63.34375 237.308594 65.925781 236.902344 68.347656 236.753906 C 70.765625 236.609375 73.292969 236.457031 75.765625 236.28125 L 90.601562 235.246094 C 93.71875 235.03125 96.699219 232.53125 96.503906 229.167969 C 96.3125 226.101562 93.765625 222.96875 90.425781 223.246094 Z M 90.425781 223.246094 " fill-opacity="1" fill-rule="nonzero"/><path fill="#fc90ad" d="M 112.242188 240.933594 C 110.601562 238.441406 106.726562 236.894531 104.054688 238.894531 C 99.730469 242.136719 95.417969 245.394531 91.121094 248.667969 C 89.0625 250.230469 86.988281 251.769531 84.945312 253.359375 C 82.230469 255.472656 78.75 257.648438 78.75 261.472656 C 78.75 263.542969 80.230469 265.171875 82.109375 265.777344 C 85.210938 266.78125 88.179688 264.496094 90.628906 262.84375 C 92.863281 261.339844 95.046875 259.761719 97.257812 258.214844 C 101.578125 255.199219 105.890625 252.175781 110.195312 249.136719 C 112.753906 247.339844 114.113281 243.757812 112.242188 240.933594 Z M 112.242188 240.933594 " fill-opacity="1" fill-rule="nonzero"/><path fill="#fc90ad" d="M 271.703125 205.914062 L 283.648438 197.621094 C 285.589844 196.277344 287.554688 194.945312 289.496094 193.609375 C 291.574219 192.1875 293.90625 190.011719 296.433594 189.546875 C 297.449219 189.242188 298.46875 189.25 299.480469 189.5625 C 302.953125 190.570312 304.453125 194.660156 302.675781 197.773438 C 301.257812 200.265625 298.203125 201.859375 295.894531 203.507812 C 293.871094 204.949219 291.851562 206.398438 289.820312 207.828125 C 285.757812 210.691406 281.691406 213.546875 277.625 216.402344 C 275.042969 218.214844 270.8125 216.839844 269.429688 214.132812 C 267.84375 211.007812 268.9375 207.835938 271.703125 205.914062 Z M 271.703125 205.914062 " fill-opacity="1" fill-rule="nonzero"/><path fill="#fc90ad" d="M 286.070312 222.171875 L 301.257812 223.425781 C 303.726562 223.632812 306.199219 223.855469 308.667969 224.089844 C 311.484375 224.351562 314.460938 224.394531 317.1875 225.074219 C 319.914062 225.753906 321.484375 228.632812 321.09375 231.25 C 320.664062 234.164062 318.363281 235.765625 315.5625 236.015625 C 313.144531 236.230469 310.566406 235.828125 308.144531 235.683594 C 305.71875 235.542969 303.199219 235.382812 300.726562 235.207031 L 285.890625 234.171875 C 282.773438 233.953125 279.792969 231.460938 279.984375 228.09375 C 280.195312 225.027344 282.738281 221.882812 286.070312 222.171875 Z M 286.070312 222.171875 " fill-opacity="1" fill-rule="nonzero"/><path fill="#fc90ad" d="M 267.097656 240.933594 C 268.738281 238.441406 272.613281 236.894531 275.285156 238.894531 C 279.609375 242.136719 283.921875 245.394531 288.222656 248.667969 C 290.277344 250.230469 292.351562 251.769531 294.394531 253.359375 C 297.109375 255.472656 300.59375 257.648438 300.597656 261.472656 C 300.597656 263.542969 299.117188 265.171875 297.234375 265.777344 C 294.132812 266.78125 291.164062 264.496094 288.714844 262.84375 C 286.476562 261.339844 284.292969 259.761719 282.085938 258.214844 C 277.761719 255.199219 273.449219 252.175781 269.148438 249.136719 C 266.585938 247.339844 265.226562 243.757812 267.097656 240.933594 Z M 267.097656 240.933594 " fill-opacity="1" fill-rule="nonzero"/></svg>